<svg xmlns="http://www.w3.org/2000/svg" fill="none" viewBox="0 0 529 107" height="107" width="529">
<path fill="black" d="M0.250001 0.999993H16.45V101.95H83.05V106H0.250001V0.999993ZM124.697 0.999993C131.997 0.999993 138.797 2.39999 145.097 5.19999C151.497 7.89999 157.047 11.65 161.747 16.45C166.547 21.15 170.297 26.7 172.997 33.1C175.797 39.5 177.197 46.3 177.197 53.5C177.197 60.8 175.797 67.65 172.997 74.05C170.297 80.35 166.547 85.9 161.747 90.7C157.047 95.4 151.497 99.15 145.097 101.95C138.797 104.65 131.997 106 124.697 106C117.497 106 110.697 104.65 104.297 101.95C97.8973 99.15 92.2973 95.4 87.4973 90.7C82.7973 85.9 79.0473 80.35 76.2473 74.05C73.5473 67.65 72.1973 60.8 72.1973 53.5C72.1973 46.3 73.5473 39.5 76.2473 33.1C79.0473 26.7 82.7973 21.15 87.4973 16.45C92.2973 11.65 97.8973 7.89999 104.297 5.19999C110.697 2.39999 117.497 0.999993 124.697 0.999993ZM124.697 101.95C129.697 101.95 134.397 100.7 138.797 98.2C143.197 95.6 147.047 92.1 150.347 87.7C153.647 83.3 156.247 78.2 158.147 72.4C160.047 66.5 160.997 60.2 160.997 53.5C160.997 46.8 160.047 40.55 158.147 34.75C156.247 28.85 153.647 23.7 150.347 19.3C147.047 14.9 143.197 11.45 138.797 8.95C134.397 6.35 129.697 5.04999 124.697 5.04999C119.697 5.04999 114.997 6.35 110.597 8.95C106.197 11.45 102.347 14.9 99.0473 19.3C95.7473 23.7 93.1473 28.85 91.2473 34.75C89.3473 40.55 88.3973 46.8 88.3973 53.5C88.3973 60.2 89.3473 66.5 91.2473 72.4C93.1473 78.2 95.7473 83.3 99.0473 87.7C102.347 92.1 106.197 95.6 110.597 98.2C114.997 100.7 119.697 101.95 124.697 101.95ZM185.929 0.999993H202.129V65.65C202.129 70.65 203.079 75.35 204.979 79.75C206.879 84.15 209.479 88 212.779 91.3C216.079 94.6 219.929 97.2 224.329 99.1C228.829 101 233.579 101.95 238.579 101.95C243.579 101.95 248.279 101 252.679 99.1C257.079 97.2 260.929 94.6 264.229 91.3C267.529 88 270.129 84.15 272.029 79.75C273.929 75.35 274.879 70.65 274.879 65.65V0.999993H291.079V53.5C291.079 60.7 289.679 67.5 286.879 73.9C284.179 80.3 280.429 85.9 275.629 90.7C270.829 95.4 265.229 99.15 258.829 101.95C252.529 104.65 245.779 106 238.579 106C231.379 106 224.579 104.65 218.179 101.95C211.779 99.15 206.179 95.4 201.379 90.7C196.579 85.9 192.779 80.3 189.979 73.9C187.279 67.5 185.929 60.7 185.929 53.5V0.999993ZM391.038 35.95C391.038 40.45 390.238 44.75 388.638 48.85C387.038 52.85 384.788 56.45 381.888 59.65C379.088 62.75 375.738 65.3 371.838 67.3C368.038 69.2 363.938 70.4 359.538 70.9L391.038 106H369.438L338.088 71.05H321.138V106H304.938V0.999993H356.088C360.888 0.999993 365.388 1.94999 369.588 3.84999C373.888 5.64999 377.588 8.14999 380.688 11.35C383.888 14.45 386.388 18.15 388.188 22.45C390.088 26.65 391.038 31.15 391.038 35.95ZM321.138 67H344.088C348.288 67 352.238 66.2 355.938 64.6C359.738 62.9 363.038 60.65 365.838 57.85C368.638 55.05 370.838 51.8 372.437 48.1C374.138 44.3 374.988 40.25 374.988 35.95C374.988 31.75 374.138 27.8 372.437 24.1C370.838 20.3 368.638 17 365.838 14.2C363.038 11.4 359.738 9.19999 355.938 7.6C352.238 5.9 348.288 5.04999 344.088 5.04999H321.138V67ZM402.789 106V0.999993H418.989V106H402.789ZM503.705 18.25C502.205 16.25 500.005 14.35 497.105 12.55C494.305 10.75 491.155 9.24999 487.655 8.04999C484.255 6.75 480.755 5.85 477.155 5.35C473.555 4.75 470.255 4.69999 467.255 5.19999C464.855 5.59999 462.505 6.24999 460.205 7.14999C458.005 8.04999 456.005 9.19999 454.205 10.6C452.405 11.9 450.855 13.5 449.555 15.4C448.355 17.3 447.505 19.5 447.005 22C446.505 25.1 447.205 27.75 449.105 29.95C451.005 32.15 453.705 34.1 457.205 35.8C460.705 37.5 464.805 39 469.505 40.3C474.305 41.6 479.205 42.95 484.205 44.35C489.305 45.65 494.305 47.05 499.205 48.55C504.205 50.05 508.705 51.85 512.705 53.95C516.805 55.95 520.205 58.35 522.905 61.15C525.705 63.95 527.355 67.3 527.855 71.2C528.355 74.7 527.955 78 526.655 81.1C525.355 84.2 523.455 87.05 520.955 89.65C518.455 92.25 515.505 94.6 512.105 96.7C508.705 98.7 505.205 100.4 501.605 101.8C498.005 103.2 494.405 104.3 490.805 105.1C487.305 105.8 484.105 106.15 481.205 106.15C476.705 106.15 472.055 105.9 467.255 105.4C462.555 104.9 457.955 104.2 453.455 103.3C449.055 102.4 444.855 101.35 440.855 100.15C436.855 98.85 433.355 97.4 430.355 95.8L439.355 78.7C441.055 82.8 443.255 86.3 445.955 89.2C448.755 92.1 451.905 94.45 455.405 96.25C458.905 98.05 462.605 99.4 466.505 100.3C470.505 101.1 474.505 101.5 478.505 101.5C483.205 101.5 487.755 101 492.155 100C496.555 98.9 500.405 97.4 503.705 95.5C507.105 93.5 509.805 91.15 511.805 88.45C513.805 85.75 514.755 82.8 514.655 79.6C514.555 76.7 513.155 74.15 510.455 71.95C507.755 69.75 504.255 67.75 499.955 65.95C495.755 64.05 490.955 62.3 485.555 60.7C480.155 59.1 474.705 57.45 469.205 55.75C463.805 53.95 458.555 52.05 453.455 50.05C448.455 47.95 444.105 45.55 440.405 42.85C436.805 40.05 434.105 36.9 432.305 33.4C430.605 29.8 430.305 25.65 431.405 20.95C432.305 17.35 434.005 14.3 436.505 11.8C439.105 9.29999 442.255 7.29999 445.955 5.79999C449.655 4.2 453.755 3.05 458.255 2.34999C462.855 1.54999 467.605 1.09999 472.505 0.999993C476.605 0.899994 480.705 1.05 484.805 1.45C489.005 1.75 493.005 2.15 496.805 2.65C500.705 3.15 504.305 3.75 507.605 4.44999C510.905 5.05 513.755 5.65 516.155 6.25L503.705 18.25Z"></path>
</svg>
